HIERARCHY
ROOT Hips
{
 OFFSET 0.000000 0.000000 0.000000
 CHANNELS 6 Xposition Yposition Zposition Yrotation Xrotation Zrotation
 JOINT Chest
 {
  OFFSET 0.000000 9.581000 -0.001100
  CHANNELS 3 Yrotation Xrotation Zrotation
  JOINT Chest2
  {
   OFFSET 0.000000 9.561100 0.002200
   CHANNELS 3 Yrotation Xrotation Zrotation
   JOINT Chest3
   {
    OFFSET 0.000000 9.521100 0.000000
    CHANNELS 3 Yrotation Xrotation Zrotation
    JOINT Chest4
    {
     OFFSET 0.000000 9.511400 0.000000
     CHANNELS 3 Yrotation Xrotation Zrotation
     JOINT Neck
     {
      OFFSET 0.000000 14.375100 0.000000
      CHANNELS 3 Yrotation Xrotation Zrotation
      JOINT Head
      {
       OFFSET 0.000000 8.901200 0.004600
       CHANNELS 3 Yrotation Xrotation Zrotation
       End Site
       {
        OFFSET 0.000000 16.962200 0.002400
       }
      }
     }
     JOINT RightCollar
     {
      OFFSET -2.920100 9.518800 0.000000
      CHANNELS 3 Yrotation Xrotation Zrotation
      JOINT RightShoulder
      {
       OFFSET -13.664500 0.000000 0.000000
       CHANNELS 3 Yrotation Xrotation Zrotation
       JOINT RightElbow
       {
        OFFSET 0.000000 -29.999200 0.000000
        CHANNELS 3 Yrotation Xrotation Zrotation
        JOINT RightWrist
        {
         OFFSET 0.000000 -24.253600 0.000000
         CHANNELS 3 Yrotation Xrotation Zrotation
         End Site
         {
          OFFSET 0.000000 -17.918900 0.000000
         }
        }
       }
      }
     }
     JOINT LeftCollar
     {
      OFFSET 2.920100 9.518800 0.000000
      CHANNELS 3 Yrotation Xrotation Zrotation
      JOINT LeftShoulder
      {
       OFFSET 13.664500 0.000000 0.000000
       CHANNELS 3 Yrotation Xrotation Zrotation
       JOINT LeftElbow
       {
        OFFSET 0.000000 -29.999200 0.000000
        CHANNELS 3 Yrotation Xrotation Zrotation
        JOINT LeftWrist
        {
         OFFSET 0.000000 -24.253600 0.000000
         CHANNELS 3 Yrotation Xrotation Zrotation
         End Site
         {
          OFFSET 0.000000 -17.918900 0.000000
         }
        }
       }
      }
     }
    }
   }
  }
 }
 JOINT RightHip
 {
  OFFSET -7.797300 0.005300 0.000500
  CHANNELS 3 Yrotation Xrotation Zrotation
  JOINT RightKnee
  {
   OFFSET 0.000000 -40.663400 -0.000500
   CHANNELS 3 Yrotation Xrotation Zrotation
   JOINT RightAnkle
   {
    OFFSET 0.000000 -39.523700 -0.000900
    CHANNELS 3 Yrotation Xrotation Zrotation
    JOINT RightToe
    {
     OFFSET 0.000000 -6.418000 14.485300
     CHANNELS 3 Yrotation Xrotation Zrotation
     End Site
     {
      OFFSET 0.000000 -1.465200 6.326400
     }
    }
   }
  }
 }
 JOINT LeftHip
 {
  OFFSET 7.797300 0.005300 0.000500
  CHANNELS 3 Yrotation Xrotation Zrotation
  JOINT LeftKnee
  {
   OFFSET 0.000000 -40.663400 -0.000500
   CHANNELS 3 Yrotation Xrotation Zrotation
   JOINT LeftAnkle
   {
    OFFSET 0.000000 -39.523700 -0.000900
    CHANNELS 3 Yrotation Xrotation Zrotation
    JOINT LeftToe
    {
     OFFSET 0.000000 -6.418000 14.485300
     CHANNELS 3 Yrotation Xrotation Zrotation
     End Site
     {
      OFFSET 0.000000 -1.465200 6.326400
     }
    }
   }
  }
 }
}
MOTION
Frames: 8
Frame Time: 0.008333
0.000000 86.422400 0.000000 0.000000 -5.767877 0.000000 0.000000 11.653817 0.000000 0.000000 -5.885947 0.000000 0.000000 -0.000000 0.000000 0.000000 -0.000000 0.000000 0.000000 12.528835 0.000000 0.000000 0.711642 0.000000 0.000000 -0.000000 0.000000 0.000000 0.000000 -90.000000 0.000000 -2.309062 0.000000 0.000000 2.309062 0.000000 0.000000 -0.000000 0.000000 0.000000 -0.000000 90.000000 0.000000 -2.309062 0.000000 0.000000 2.309062 0.000000 0.000000 8.520406 0.000000 0.000000 1.905762 0.000000 -0.000000 -4.658285 0.000000 0.000000 -0.000000 0.000000 0.000000 8.520406 0.000000 0.000000 1.905762 0.000000 -0.000000 -4.658285 0.000000 0.000000 -0.000000 0.000000
-15.318000 126.906781 20.148163 -171.788751 -47.688394 -3.508313 -1.847234 26.403948 0.901189 -0.334092 4.458957 0.203290 -0.519184 7.029582 0.323242 -1.524064 21.663385 0.797559 2.950918 9.344062 2.106279 2.696108 -15.832498 1.493932 3.962602 1.338833 1.341965 2.080144 -22.935636 -11.026036 -86.778759 -47.313252 143.562206 -3.678038 9.953203 4.551200 -9.885572 -2.764233 -0.665573 -9.816293 -19.932402 11.978085 41.609799 -37.084803 -94.944346 10.273156 -18.144270 6.398950 -4.669414 -24.399483 -1.152276 -3.962280 77.489865 -2.227525 10.685044 -10.242021 1.035391 -0.000080 -0.001479 -0.000035 7.453710 3.397781 3.313633 130.081816 65.579938 151.190749 3.350064 13.901872 6.049151 0.000216 0.001782 0.000096
-15.317513 126.906722 20.148460 -171.785772 -47.689626 -3.505118 -1.851161 26.396731 0.897880 -0.332537 4.445700 0.205742 -0.522768 7.029980 0.319771 -1.526515 21.667537 0.794116 2.928162 9.338196 2.020734 2.691871 -15.786565 1.493664 4.079802 1.085527 1.370015 2.127425 -23.566046 -10.826450 -87.465157 -47.162895 144.113024 -3.697721 9.551234 4.939215 -9.937289 -2.903828 -0.661143 -10.003597 -20.446258 11.808218 40.909432 -36.590463 -93.827754 10.153066 -17.984340 6.203401 -4.672782 -24.397691 -1.157836 -4.019495 77.486081 -2.280406 10.689997 -10.239956 1.032560 -0.000442 -0.001536 -0.000196 7.453312 3.398243 3.309530 130.078079 65.581297 151.187722 3.349134 13.903027 6.055282 0.000662 0.000633 0.000293
-15.316697 126.906464 20.148898 -171.781536 -47.688564 -3.503131 -1.856696 26.387893 0.894118 -0.333203 4.432595 0.206652 -0.523144 7.043615 0.316961 -1.542687 21.585985 0.783442 2.921396 9.424078 1.981028 2.685535 -15.738955 1.449665 4.208894 0.891882 1.406078 2.211495 -24.184591 -10.602026 -88.130569 -47.006800 144.628165 -3.711047 9.123815 5.324019 -9.977008 -2.961690 -0.663040 -10.192561 -20.969228 11.626258 40.162370 -36.192098 -92.606452 9.980919 -17.725784 5.881978 -4.677925 -24.398219 -1.163550 -4.012326 77.482641 -2.277552 10.705504 -10.238736 1.035373 0.000122 -0.001254 0.000054 7.451011 3.395472 3.303572 130.077464 65.579867 151.187987 3.348964 13.904204 6.056627 0.000772 -0.000191 0.000342
-15.316514 126.906378 20.149188 -171.777082 -47.688464 -3.496371 -1.865757 26.368212 0.884180 -0.334167 4.425923 0.205186 -0.524639 7.033631 0.314613 -1.544661 21.596543 0.780250 2.913347 9.449640 1.959190 2.666377 -15.674870 1.382024 4.326844 0.634524 1.428974 2.329581 -24.806364 -10.335500 -88.767211 -46.836666 145.113939 -3.737868 8.697559 5.692311 -10.023195 -3.069177 -0.650580 -10.390276 -21.502738 11.436233 39.351694 -35.871706 -91.286848 9.729690 -17.446453 5.435339 -4.678275 -24.398314 -1.172770 -4.032906 77.478650 -2.299906 10.711379 -10.236721 1.037782 -0.000538 -0.001308 -0.000239 7.446515 3.392530 3.298079 130.079566 65.582733 151.185173 3.350929 13.912443 6.053171 0.000875 -0.001501 0.000388
-15.315888 126.905960 20.149762 -171.780686 -47.685106 -3.484948 -1.873131 26.322444 0.870943 -0.335016 4.440820 0.203535 -0.524448 6.988677 0.312160 -1.543575 21.597728 0.773694 2.904385 9.522006 1.945124 2.640213 -15.595219 1.316211 4.445732 0.427817 1.454452 2.481020 -25.439683 -10.024166 -89.400658 -46.664104 145.588420 -3.800032 8.317783 6.021920 -10.043425 -3.060718 -0.646498 -10.640545 -22.097811 11.272861 38.497381 -35.607686 -89.889855 9.455484 -17.212931 4.839932 -4.680919 -24.402430 -1.176816 -4.033396 77.475537 -2.306138 10.710154 -10.234415 1.038645 -0.000367 -0.000823 -0.000162 7.447857 3.390016 3.291145 130.069182 65.581061 151.165893 3.357312 13.913889 6.053521 -0.003890 -0.000367 -0.001723
-15.313994 126.906049 20.149797 -171.781190 -47.685188 -3.482715 -1.873399 26.311251 0.868858 -0.334803 4.420468 0.203952 -0.525137 7.009175 0.311292 -1.535194 21.535004 0.760113 2.871879 9.603065 1.914436 2.613109 -15.506007 1.280302 4.555454 0.229754 1.487687 2.665506 -26.085614 -9.676606 -90.048088 -46.514343 146.062141 -3.888180 8.027771 6.279364 -10.102208 -3.113193 -0.610975 -10.885814 -22.624414 11.096705 37.626893 -35.380769 -88.436205 9.204296 -17.008018 4.115223 -4.702182 -24.401445 -1.165110 -4.062498 77.470172 -2.352956 10.713899 -10.230962 1.038518 -0.000378 -0.000873 -0.000168 7.445370 3.392534 3.296402 130.066988 65.585376 151.156579 3.357051 13.912771 6.057165 -0.004359 -0.000493 -0.001931
-15.312203 126.906145 20.149866 -171.792114 -47.686157 -3.470987 -1.867363 26.300771 0.863931 -0.332991 4.401460 0.201417 -0.523169 6.997089 0.308840 -1.510474 21.515748 0.745387 2.804669 9.708215 1.832904 2.584812 -15.437234 1.312696 4.655341 0.023802 1.532981 2.874877 -26.742234 -9.303143 -90.695787 -46.396968 146.522061 -3.990939 7.814042 6.452529 -10.179840 -3.160231 -0.560886 -11.173588 -23.161786 10.952431 36.744211 -35.146781 -86.945475 8.960021 -16.760056 3.322546 -4.700240 -24.401078 -1.159100 -4.095981 77.468427 -2.390762 10.701842 -10.230256 1.038594 -0.001963 -0.000889 -0.000870 7.443132 3.398072 3.305914 130.080544 65.596735 151.157211 3.352000 13.911858 6.060256 -0.000975 -0.000191 -0.000432
